<?xml version="1.0" encoding="utf-8"?>
<!-- Generator: Adobe Illustrator 19.0.0, SVG Export Plug-In . SVG Version: 6.00 Build 0)  -->
<svg version="1.1" id="图层_1" xmlns="http://www.w3.org/2000/svg" xmlns:xlink="http://www.w3.org/1999/xlink" x="0px" y="0px"
	 viewBox="-309 187.3 222 222" style="enable-background:new -309 187.3 222 222;" xml:space="preserve">
<style type="text/css">
	.st0{fill:#FFFFFF;}
</style>
<g>
	<g>
		<path class="st0" d="M-235.2,343.8v-93.7c0-7.8,4.3-11.9,13-12.4h31.9c19.5,1.7,29.9,11.5,31.2,29.3c0,12.2-5.2,20.2-15.6,24.1
			v0.7c15.6,3.5,24.1,12.8,25.4,28c-0.9,23.9-13.7,36-38.4,36.5h-34.5C-230.8,356.2-235.2,352.1-235.2,343.8z M-210.4,259.9v24.7h13
			c8.2-0.4,12.8-4.8,13.7-13c-0.4-6.9-5-10.8-13.7-11.7H-210.4z M-210.4,306.7v27.3h19.5c10,0,15.2-4.8,15.6-14.3
			c-0.4-8.2-6.3-12.6-17.6-13H-210.4z"/>
	</g>
	<g>
		<path class="st0" d="M-199.1,409.3c-7.4,0-14.9-1.9-21.5-5.7l-58.9-34c-13.3-7.7-21.5-21.9-21.5-37.3v-68
			c0-15.3,8.2-29.6,21.5-37.3l58.9-34c13.3-7.7,29.8-7.7,43,0l58.9,34c5.3,3,7.1,9.8,4,15c-3,5.3-9.8,7.1-15,4l-58.9-34
			c-6.5-3.7-14.6-3.7-21,0l-58.9,34c-6.5,3.7-10.5,10.7-10.5,18.2v68c0,7.5,4,14.5,10.5,18.2l58.9,34c6.5,3.7,14.6,3.8,21,0l58.9-34
			c6.5-3.7,10.5-10.7,10.5-18.2v-68c0-6.1,4.9-11,11-11c6.1,0,11,4.9,11,11v68c0,15.3-8.2,29.6-21.5,37.3l-58.9,34
			C-184.2,407.4-191.6,409.3-199.1,409.3z"/>
	</g>
</g>
</svg>
