<?xml version="1.0" encoding="utf-8"?>
<!-- Generator: Adobe Illustrator 19.0.0, SVG Export Plug-In . SVG Version: 6.00 Build 0)  -->
<svg version="1.1" id="图层_1" xmlns="http://www.w3.org/2000/svg" xmlns:xlink="http://www.w3.org/1999/xlink" x="0px" y="0px"
	 viewBox="-309 187.3 222 222" style="enable-background:new -309 187.3 222 222;" xml:space="preserve">
<style type="text/css">
	.st0{fill:#F5222D;}
</style>
<g>
	<g>
		<path class="st0" d="M-232.9,342.8v-92.3c0-7.7,4.3-11.8,12.8-12.2h31.4c19.2,1.7,29.5,11.3,30.8,28.9c0,12-5.1,19.9-15.4,23.7
			v0.6c15.4,3.4,23.7,12.6,25,27.6c-0.9,23.5-13.5,35.5-37.8,35.9h-34C-228.7,355-232.9,350.9-232.9,342.8z M-208.6,260.1v24.4h12.8
			c8.1-0.4,12.6-4.7,13.5-12.8c-0.4-6.8-4.9-10.7-13.5-11.5H-208.6z M-208.6,306.3v26.9h19.2c9.8,0,15-4.7,15.4-14.1
			c-0.4-8.1-6.2-12.4-17.3-12.8H-208.6z"/>
	</g>
	<g>
		<path class="st0" d="M-197.4,407.3c-7.3,0-14.7-1.9-21.2-5.7l-58-33.5c-13.1-7.6-21.2-21.6-21.2-36.7v-67
			c0-15.1,8.1-29.2,21.2-36.7l58-33.5c13.1-7.5,29.3-7.5,42.4,0l58,33.5c5.2,3,7,9.6,4,14.8c-3,5.2-9.6,7-14.8,4l-58-33.5
			c-6.4-3.7-14.3-3.7-20.7,0l-58,33.5c-6.4,3.7-10.4,10.6-10.4,18v67c0,7.4,4,14.3,10.4,18l58,33.5c6.4,3.7,14.3,3.7,20.7,0l58-33.5
			c6.4-3.7,10.4-10.6,10.4-18v-67c0-6,4.8-10.8,10.8-10.8c6,0,10.8,4.8,10.8,10.8v67c0,15.1-8.1,29.2-21.2,36.7l-58,33.5
			C-182.7,405.4-190.1,407.3-197.4,407.3z"/>
	</g>
</g>
</svg>
