<?xml version="1.0" encoding="utf-8"?>
<!-- Generator: Adobe Illustrator 19.0.0, SVG Export Plug-In . SVG Version: 6.00 Build 0)  -->
<svg version="1.1" id="图层_1" xmlns="http://www.w3.org/2000/svg" xmlns:xlink="http://www.w3.org/1999/xlink" x="0px" y="0px"
	 viewBox="-144 187.3 552 222" style="enable-background:new -144 187.3 552 222;" xml:space="preserve">
<style type="text/css">
	.st0{fill:#FFFFFF;}
</style>
<g>
	<path class="st0" d="M-47.5,342.4V253c0-7.4,4.1-11.4,12.4-11.8h30.4c18.6,1.7,28.5,11,29.8,27.9c0,11.6-5,19.2-14.9,23v0.6
		c14.9,3.3,23,12.2,24.2,26.7c-0.8,22.8-13,34.3-36.6,34.7h-32.9C-43.4,354.1-47.5,350.2-47.5,342.4z M-24,262.3v23.6h12.4
		c7.9-0.4,12.2-4.5,13-12.4c-0.4-6.6-4.8-10.3-13-11.2H-24z M-24,307V333h18.6c9.5,0,14.5-4.5,14.9-13.6c-0.4-7.9-6-12-16.8-12.4
		H-24z"/>
</g>
<g>
	<g>
		<path class="st0" d="M135.5,234.4c7.9,1.2,12.2,5.4,13,12.4c-0.8,8.3-5.2,12.6-13,13c-7.4-0.4-11.6-4.8-12.4-13
			C124,239.4,128.1,235.2,135.5,234.4z M124.4,342.4v-60.8c0-7.9,3.7-12.2,11.2-13c7.4,0.8,11.4,5.2,11.8,13v60.8
			c-0.8,7.9-4.8,11.8-11.8,11.8C128.5,354.1,124.8,350.2,124.4,342.4z"/>
		<path class="st0" d="M159.1,342.4v-60.8c0-7.9,3.9-12.2,11.8-13c5.8,0.4,9.3,3.3,10.5,8.7c5.8-6.2,12.8-9.3,21.1-9.3
			c9.9,0.4,17.8,4.1,23.6,11.2c7.4-6.6,15.5-10.3,24.2-11.2c20.3,0.8,30.8,11,31.6,30.4v44c-0.8,7.9-4.8,11.8-11.8,11.8
			c-7.4,0-11.2-3.9-11.2-11.8v-39.7c-0.8-9.9-5.4-15.3-13.6-16.1c-8.7,0.8-13.2,6.2-13.6,16.1v39.7c-0.4,7.9-4.1,11.8-11.2,11.8
			c-7.4,0-11.2-3.9-11.2-11.8v-39.7c-0.8-9.9-5.4-15.3-13.6-16.1c-9.1,0.4-13.6,5.8-13.6,16.1v39.7c-0.4,7.9-4.1,11.8-11.2,11.8
			C163.5,354.1,159.5,350.2,159.1,342.4z"/>
		<path class="st0" d="M305.5,234.4c7.9,1.2,12.2,5.4,13,12.4c-0.8,8.3-5.2,12.6-13,13c-7.4-0.4-11.6-4.8-12.4-13
			C293.9,239.4,298.1,235.2,305.5,234.4z M294.4,342.4v-60.8c0-7.9,3.7-12.2,11.2-13c7.4,0.8,11.4,5.2,11.8,13v60.8
			c-0.8,7.9-4.8,11.8-11.8,11.8C298.5,354.1,294.8,350.2,294.4,342.4z"/>
		<path class="st0" d="M386.8,284c-0.8,6.6-3.9,10.1-9.3,10.5c-1.7,0.4-4.3-0.4-8.1-2.5c-5.8-2.5-9.9-3.9-12.4-4.3
			c-5.4,0.4-8.1,2.5-8.1,6.2c0,2.9,4.3,6,13,9.3c17.8,7,26.7,15.7,26.7,26.1c-1.7,16.5-12.4,25-32.3,25.4
			c-19.4-1.2-30-6.6-31.6-16.1c0.8-6.2,3.9-9.7,9.3-10.5c2.9,0,6.4,1.5,10.5,4.3c5,2.5,9.5,3.7,13.6,3.7c5.8,0.4,8.7-1.9,8.7-6.8
			c0-2.5-4.6-5.4-13.6-8.7c-17.4-6.6-26.1-15.3-26.1-26.1c0.8-16.5,11.2-25.4,31-26.7C376,269.6,385.6,274.9,386.8,284z"/>
	</g>
</g>
<g>
	<path class="st0" d="M-13.1,404.7c-7.1,0-14.2-1.8-20.5-5.5l-56.1-32.4c-12.7-7.3-20.5-20.9-20.5-35.5v-64.8
		c0-14.6,7.9-28.2,20.5-35.5l56.1-32.4c12.7-7.3,28.4-7.3,41,0L63.5,231c5,2.9,6.7,9.3,3.8,14.3c-2.9,5-9.3,6.7-14.3,3.8l-56.1-32.4
		c-6.2-3.6-13.9-3.6-20.1,0l-56.1,32.4c-6.2,3.6-10,10.2-10,17.4v64.8c0,7.1,3.8,13.8,10,17.4l56.1,32.4c6.2,3.6,13.9,3.6,20.1,0
		L53,348.7c6.2-3.6,10-10.2,10-17.4v-64.8c0-5.8,4.7-10.5,10.5-10.5c5.8,0,10.5,4.7,10.5,10.5v64.8c0,14.6-7.9,28.2-20.5,35.5
		L7.4,399.2C1,402.9-6,404.7-13.1,404.7z"/>
</g>
</svg>
